# xmcd
#
# Track frame offsets:
#	150
#	14596
#	30858
#	47789
#	63398
#	84213
#	100563
#	117151
#	142329
#	158086
#	174678
#	191965
#
# Disc length: 2770 seconds
#
# Revision: 0
# Processed by: cddbd v1.5.1PL2 Copyright (c) Steve Scherf et al.
# Submitted via: dBpowerAMP V4.0
#
DISCID=9b0ad00c
DTITLE=Brothertunes - Come Close
DYEAR=2006
DGENRE=Blues
TTITLE0=Sincerly Yours
TTITLE1=Back on me
TTITLE2=Come Close
TTITLE3=Good to know
TTITLE4=Here she comes
TTITLE5=Only in your head
TTITLE6=cheap girls
TTITLE7=poor boy
TTITLE8=people never get tired
TTITLE9=pretend you've known me all your life
TTITLE10=so right
TTITLE11=grateful
EXTD=
EXTT0=
EXTT1=
EXTT2=
EXTT3=
EXTT4=
EXTT5=
EXTT6=
EXTT7=
EXTT8=
EXTT9=
EXTT10=
EXTT11=
PLAYORDER=
